<svg xmlns="http://www.w3.org/2000/svg" width="220" height="48" viewBox="0 0 220 48" role="img" aria-label="Visman logo">
  <defs>
    <linearGradient id="g" x1="0" y1="0" x2="1" y2="1">
      <stop offset="0%" stop-color="#0b3b6e"/>
      <stop offset="100%" stop-color="#e3b341"/>
    </linearGradient>
  </defs>
  <rect rx="8" width="220" height="48" fill="#ffffff"/>
  <g transform="translate(10,34)">
    <path d="M0 -24 L8 -24 L18 0 L10 0 Z" fill="#0b3b6e"/>
    <path d="M20 -24 L28 -24 L28 0 L20 0 Z" fill="#0b3b6e"/>
    <circle cx="38" cy="-18" r="4" fill="#e3b341"/>
    <rect x="34" y="-14" width="8" height="14" fill="#0b3b6e"/>
    <path d="M50 0 L50 -24 L58 -24 L58 -6 Q62 -10 68 -10 Q76 -10 79 -6 Q82 -2 82 0 L74 0 Q74 -8 67 -8 Q60 -8 58 0 Z" fill="#0b3b6e"/>
    <text x="90" y="0" font-family="Poppins, Arial, sans-serif" font-size="26" font-weight="700" fill="url(#g)">Visman</text>
  </g>
</svg>
